<mxfile host="app.diagrams.net" modified="2020-09-13T17:30:33.724Z" agent="5.0 (Macintosh; Intel Mac OS X 10_15_6) AppleWebKit/537.36 (KHTML, like Gecko) Chrome/85.0.4183.83 Safari/537.36" etag="-BJ_nV88dDte9vas3uiP" version="13.6.10" type="github">
  <diagram id="CwQQr-IciCl6DjThdBCt" name="Page-1">
    <mxGraphModel dx="808" dy="647" grid="1" gridSize="10" guides="1" tooltips="1" connect="1" arrows="1" fold="1" page="1" pageScale="1" pageWidth="850" pageHeight="1100" math="0" shadow="0">
      <root>
        <mxCell id="0" />
        <mxCell id="1" parent="0" />
        <mxCell id="pA_OjIZ0bTyvfARBYgjx-1" value="Real Estate Weather App" style="rounded=1;whiteSpace=wrap;html=1;" vertex="1" parent="1">
          <mxGeometry x="350" y="300" width="280" height="60" as="geometry" />
        </mxCell>
      </root>
    </mxGraphModel>
  </diagram>
</mxfile>
